# xmcd
#
# Track frame offsets:
#	150
#	12930
#	34687
#	59935
#	79227
#	101347
#	119797
#	137230
#	174312
#
# Disc length: 2603 seconds
#
# Revision: 1
# Processed by: cddbd v1.5.2PL0 Copyright (c) Steve Scherf et al.
# Submitted via: audiograbber 1.83.01
#
DISCID=7c0a2909
DTITLE=David Kolker Band - Letting Go
DYEAR=2001
DGENRE=Blues
TTITLE0=Beautiful
TTITLE1=Mean World
TTITLE2=I Had a Dream
TTITLE3=Penny Song
TTITLE4=The Hurt
TTITLE5=You Say
TTITLE6=What's Yours is Yours
TTITLE7=Two Sides Same Coin
TTITLE8=Another Way to Fly
EXTD=
EXTT0=
EXTT1=
EXTT2=
EXTT3=
EXTT4=
EXTT5=
EXTT6=
EXTT7=
EXTT8=
PLAYORDER=
